<?xml version="1.0" encoding="UTF-8" standalone="no"?>
<svg
   width="52"
   height="60"
   viewBox="0 0 52 60"
   fill="none"
   version="1.1"
   id="svg7"
   sodipodi:docname="Map pin.svg"
   inkscape:version="1.3 (0e150ed6c4, 2023-07-21)"
   inkscape:export-filename="map_marker1.svg"
   inkscape:export-xdpi="96"
   inkscape:export-ydpi="96"
   xmlns:inkscape="http://www.inkscape.org/namespaces/inkscape"
   xmlns:sodipodi="http://sodipodi.sourceforge.net/DTD/sodipodi-0.dtd"
   xmlns="http://www.w3.org/2000/svg"
   xmlns:svg="http://www.w3.org/2000/svg">
  <sodipodi:namedview
     id="namedview7"
     pagecolor="#ffffff"
     bordercolor="#000000"
     borderopacity="0.25"
     inkscape:showpageshadow="2"
     inkscape:pageopacity="0.0"
     inkscape:pagecheckerboard="0"
     inkscape:deskcolor="#d1d1d1"
     inkscape:zoom="17.633333"
     inkscape:cx="25.973535"
     inkscape:cy="30.028355"
     inkscape:window-width="2560"
     inkscape:window-height="1316"
     inkscape:window-x="-12"
     inkscape:window-y="-12"
     inkscape:window-maximized="1"
     inkscape:current-layer="svg7" />
  <g
     filter="url(#filter0_f_16_95)"
     id="g1">
    <ellipse
       cx="26"
       cy="53.5"
       rx="7"
       ry="2.5"
       fill="black"
       fill-opacity="0.2"
       id="ellipse1" />
  </g>
  <g
     filter="url(#filter1_d_16_95)"
     id="g2"
     style="fill:#f9f9f9">
    <path
       fill-rule="evenodd"
       clip-rule="evenodd"
       d="M26 4C37.598 4 47 13.402 47 25C47 33.8926 41.4727 41.4942 33.6663 44.5567L27.1961 53.4007C27.0612 53.5858 26.8821 53.7369 26.6739 53.8412C26.4657 53.9455 26.2346 54 26 54C25.7654 54 25.5343 53.9455 25.3261 53.8412C25.1179 53.7369 24.9388 53.5858 24.8039 53.4007L18.3337 44.5567C10.5273 41.4941 5 33.8926 5 25C5 13.402 14.402 4 26 4Z"
       fill="white"
       id="path1"
       style="fill:#f9f9f9" />
  </g>
  <path
     d="M43 25C43 15.6112 35.3888 8 26 8C16.6112 8 9 15.6112 9 25C9 34.3888 16.6112 42 26 42C35.3888 42 43 34.3888 43 25Z"
     fill="#3478F5"
     id="path2"
     style="fill:#f9f9f9" />
  <path
     d="M 37.443505,31.46841 H 14.556328 c -0.766014,0 -1.387047,0.621033 -1.387047,1.387047 v 1.387045 c 0,0.76618 0.621033,1.387213 1.387047,1.387213 h 22.887177 c 0.76618,0 1.387214,-0.621033 1.387214,-1.387213 v -1.387045 c 0,-0.766014 -0.621034,-1.387047 -1.387214,-1.387047 z"
     stroke="white"
     stroke-width="2.08066"
     stroke-linecap="round"
     stroke-linejoin="round"
     id="path3"
     style="fill:#e6e6e6;stroke:#000000;stroke-opacity:1" />
  <path
     d="M 16.608906,19.250206 V 31.08989 M 35.390928,19.250206 V 31.08989 M 29.478179,19.250206 V 31.08989 M 22.521819,19.250206 V 31.08989 M 24.664305,9.8954235 13.85421,15.808337 c -0.218874,0.119704 -0.401518,0.296171 -0.528901,0.510871 -0.127217,0.214699 -0.194498,0.459617 -0.194498,0.709209 v 1.387031 c 0,0.221378 0.08798,0.43374 0.244416,0.59034 0.156599,0.156433 0.368961,0.244418 0.590339,0.244418 h 24.068866 c 0.221378,0 0.433575,-0.08798 0.590173,-0.244418 0.156601,-0.1566 0.244585,-0.368962 0.244585,-0.59034 v -1.387031 c -1.66e-4,-0.249592 -0.06728,-0.49451 -0.194665,-0.709209 -0.127217,-0.2147 -0.30986,-0.391167 -0.528902,-0.510871 L 27.335528,9.8954235 C 26.925995,9.6713749 26.466711,9.5538406 25.999915,9.5538406 c -0.466795,0 -0.926078,0.1175343 -1.33561,0.3415829 z"
     stroke="#ffffff"
     stroke-width="2.08689"
     stroke-linecap="round"
     stroke-linejoin="round"
     id="path4"
     style="opacity:1;fill:#f9f9f9;fill-opacity:1;stroke:#000000;stroke-opacity:1" />
  <defs
     id="defs7">
    <filter
       id="filter0_f_16_95"
       x="17"
       y="49"
       width="18"
       height="9"
       filterUnits="userSpaceOnUse"
       color-interpolation-filters="sRGB">
      <feFlood
         flood-opacity="0"
         result="BackgroundImageFix"
         id="feFlood4" />
      <feBlend
         mode="normal"
         in="SourceGraphic"
         in2="BackgroundImageFix"
         result="shape"
         id="feBlend4" />
      <feGaussianBlur
         stdDeviation="1"
         result="effect1_foregroundBlur_16_95"
         id="feGaussianBlur4" />
    </filter>
    <filter
       id="filter1_d_16_95"
       x="0"
       y="0"
       width="52"
       height="60"
       filterUnits="userSpaceOnUse"
       color-interpolation-filters="sRGB">
      <feFlood
         flood-opacity="0"
         result="BackgroundImageFix"
         id="feFlood5" />
      <feColorMatrix
         in="SourceAlpha"
         type="matrix"
         values="0 0 0 0 0 0 0 0 0 0 0 0 0 0 0 0 0 0 127 0"
         result="hardAlpha"
         id="feColorMatrix5" />
      <feOffset
         dy="1"
         id="feOffset5" />
      <feGaussianBlur
         stdDeviation="2.5"
         id="feGaussianBlur5" />
      <feComposite
         in2="hardAlpha"
         operator="out"
         id="feComposite5" />
      <feColorMatrix
         type="matrix"
         values="0 0 0 0 0 0 0 0 0 0 0 0 0 0 0 0 0 0 0.1 0"
         id="feColorMatrix6" />
      <feBlend
         mode="normal"
         in2="BackgroundImageFix"
         result="effect1_dropShadow_16_95"
         id="feBlend6" />
      <feBlend
         mode="normal"
         in="SourceGraphic"
         in2="effect1_dropShadow_16_95"
         result="shape"
         id="feBlend7" />
    </filter>
  </defs>
</svg>
